<mxfile host="app.diagrams.net" agent="Mozilla/5.0 (Windows NT 10.0; Win64; x64) AppleWebKit/537.36 (KHTML, like Gecko) Chrome/131.0.0.0 Safari/537.36" version="25.0.1" pages="2">
  <diagram name="Задание 1" id="4CJxn171m_FTkWMr3eQ8">
    <mxGraphModel dx="1877" dy="1734" grid="1" gridSize="10" guides="1" tooltips="1" connect="1" arrows="1" fold="1" page="1" pageScale="1" pageWidth="827" pageHeight="1169" math="0" shadow="0">
      <root>
        <mxCell id="0" />
        <mxCell id="1" parent="0" />
        <mxCell id="Gb1qQWzs4bRgOtGYMly9-76" value="&lt;b&gt;&lt;span style=&quot;font-size:12.0pt;line-height:107%;&lt;br/&gt;font-family:&amp;quot;Times New Roman&amp;quot;,serif;mso-fareast-font-family:Calibri;mso-fareast-theme-font:&lt;br/&gt;minor-latin;mso-ansi-language:RU;mso-fareast-language:EN-US;mso-bidi-language:&lt;br/&gt;AR-SA;mso-bidi-font-style:italic&quot;&gt;Система управления логистикой интернет-магазина&lt;/span&gt;&lt;/b&gt;" style="swimlane;whiteSpace=wrap;html=1;" parent="1" vertex="1">
          <mxGeometry x="-800" y="-30" width="2023" height="1486" as="geometry" />
        </mxCell>
        <mxCell id="Gb1qQWzs4bRgOtGYMly9-77" value="Клиент" style="swimlane;whiteSpace=wrap;html=1;" parent="Gb1qQWzs4bRgOtGYMly9-76" vertex="1">
          <mxGeometry y="24" width="320" height="1456" as="geometry" />
        </mxCell>
        <mxCell id="Gb1qQWzs4bRgOtGYMly9-1" style="edgeStyle=orthogonalEdgeStyle;rounded=0;orthogonalLoop=1;jettySize=auto;html=1;exitX=0.5;exitY=1;exitDx=0;exitDy=0;entryX=0.5;entryY=0;entryDx=0;entryDy=0;" parent="Gb1qQWzs4bRgOtGYMly9-77" source="Gb1qQWzs4bRgOtGYMly9-3" target="Gb1qQWzs4bRgOtGYMly9-6" edge="1">
          <mxGeometry relative="1" as="geometry" />
        </mxCell>
        <mxCell id="Gb1qQWzs4bRgOtGYMly9-2" value="&lt;span style=&quot;line-height: 107%; font-family: &amp;quot;Times New Roman&amp;quot;, serif;&quot;&gt;&lt;font style=&quot;font-size: 12px;&quot;&gt;Клиент создает заказ через сайт&amp;nbsp;&lt;/font&gt;&lt;/span&gt;" style="edgeLabel;html=1;align=center;verticalAlign=middle;resizable=0;points=[];" parent="Gb1qQWzs4bRgOtGYMly9-1" vertex="1" connectable="0">
          <mxGeometry x="-0.1259" relative="1" as="geometry">
            <mxPoint as="offset" />
          </mxGeometry>
        </mxCell>
        <mxCell id="Gb1qQWzs4bRgOtGYMly9-3" value="" style="shape=ellipse;html=1;fillColor=strokeColor;fontSize=18;fontColor=#ffffff;" parent="Gb1qQWzs4bRgOtGYMly9-77" vertex="1">
          <mxGeometry x="100" y="36" width="40" height="40" as="geometry" />
        </mxCell>
        <mxCell id="Gb1qQWzs4bRgOtGYMly9-6" value="Формирование&amp;nbsp; заказа" style="shape=rect;rounded=1;html=1;whiteSpace=wrap;align=center;" parent="Gb1qQWzs4bRgOtGYMly9-77" vertex="1">
          <mxGeometry x="70" y="136" width="100" height="40" as="geometry" />
        </mxCell>
        <mxCell id="Gb1qQWzs4bRgOtGYMly9-46" value="" style="html=1;points=[[0,0,0,0,5],[0,1,0,0,-5],[1,0,0,0,5],[1,1,0,0,-5]];perimeter=orthogonalPerimeter;outlineConnect=0;targetShapes=umlLifeline;portConstraint=eastwest;newEdgeStyle={&quot;curved&quot;:0,&quot;rounded&quot;:0};rotation=90;fillColor=#000000;" parent="Gb1qQWzs4bRgOtGYMly9-77" vertex="1">
          <mxGeometry x="100" y="396" width="10" height="80" as="geometry" />
        </mxCell>
        <mxCell id="Gb1qQWzs4bRgOtGYMly9-38" value="&lt;font face=&quot;Times New Roman, serif&quot;&gt;Онлайн оплата&lt;/font&gt;" style="shape=rect;rounded=1;html=1;whiteSpace=wrap;align=center;" parent="Gb1qQWzs4bRgOtGYMly9-77" vertex="1">
          <mxGeometry x="20" y="516" width="100" height="40" as="geometry" />
        </mxCell>
        <mxCell id="Gb1qQWzs4bRgOtGYMly9-47" style="edgeStyle=orthogonalEdgeStyle;rounded=0;orthogonalLoop=1;jettySize=auto;html=1;curved=0;exitX=1;exitY=1;exitDx=0;exitDy=-5;exitPerimeter=0;entryX=0.5;entryY=0;entryDx=0;entryDy=0;" parent="Gb1qQWzs4bRgOtGYMly9-77" source="Gb1qQWzs4bRgOtGYMly9-46" target="Gb1qQWzs4bRgOtGYMly9-38" edge="1">
          <mxGeometry relative="1" as="geometry" />
        </mxCell>
        <mxCell id="Gb1qQWzs4bRgOtGYMly9-39" value="&lt;font face=&quot;Times New Roman, serif&quot;&gt;при доставке&lt;/font&gt;" style="shape=rect;rounded=1;html=1;whiteSpace=wrap;align=center;" parent="Gb1qQWzs4bRgOtGYMly9-77" vertex="1">
          <mxGeometry x="190" y="486" width="100" height="40" as="geometry" />
        </mxCell>
        <mxCell id="Gb1qQWzs4bRgOtGYMly9-48" style="edgeStyle=orthogonalEdgeStyle;rounded=0;orthogonalLoop=1;jettySize=auto;html=1;curved=0;exitX=1;exitY=0;exitDx=0;exitDy=5;exitPerimeter=0;entryX=0.5;entryY=0;entryDx=0;entryDy=0;" parent="Gb1qQWzs4bRgOtGYMly9-77" source="Gb1qQWzs4bRgOtGYMly9-46" target="Gb1qQWzs4bRgOtGYMly9-39" edge="1">
          <mxGeometry relative="1" as="geometry" />
        </mxCell>
        <mxCell id="Gb1qQWzs4bRgOtGYMly9-54" value="&lt;font face=&quot;Times New Roman, serif&quot;&gt;Отправить уведомление клиенту&lt;/font&gt;" style="shape=rect;rounded=1;html=1;whiteSpace=wrap;align=center;" parent="Gb1qQWzs4bRgOtGYMly9-77" vertex="1">
          <mxGeometry x="80" y="716" width="100" height="40" as="geometry" />
        </mxCell>
        <mxCell id="Gb1qQWzs4bRgOtGYMly9-90" style="edgeStyle=orthogonalEdgeStyle;rounded=0;orthogonalLoop=1;jettySize=auto;html=1;entryX=0;entryY=1;entryDx=0;entryDy=-5;entryPerimeter=0;exitX=0;exitY=0.5;exitDx=0;exitDy=0;" parent="Gb1qQWzs4bRgOtGYMly9-77" source="Gb1qQWzs4bRgOtGYMly9-54" target="Gb1qQWzs4bRgOtGYMly9-46" edge="1">
          <mxGeometry relative="1" as="geometry">
            <mxPoint x="60" y="736" as="sourcePoint" />
            <Array as="points">
              <mxPoint x="10" y="736" />
              <mxPoint x="10" y="411" />
              <mxPoint x="70" y="411" />
            </Array>
          </mxGeometry>
        </mxCell>
        <mxCell id="Gb1qQWzs4bRgOtGYMly9-60" value="&lt;font face=&quot;Times New Roman, serif&quot;&gt;Отправить уведомление клиенту&lt;/font&gt;" style="shape=rect;rounded=1;html=1;whiteSpace=wrap;align=center;" parent="Gb1qQWzs4bRgOtGYMly9-77" vertex="1">
          <mxGeometry x="90" y="996" width="100" height="40" as="geometry" />
        </mxCell>
        <mxCell id="Gb1qQWzs4bRgOtGYMly9-22" value="" style="shape=mxgraph.sysml.actFinal;html=1;verticalLabelPosition=bottom;labelBackgroundColor=#ffffff;verticalAlign=top;" parent="Gb1qQWzs4bRgOtGYMly9-77" vertex="1">
          <mxGeometry x="120" y="1175" width="40" height="40" as="geometry" />
        </mxCell>
        <mxCell id="Gb1qQWzs4bRgOtGYMly9-91" style="edgeStyle=orthogonalEdgeStyle;rounded=0;orthogonalLoop=1;jettySize=auto;html=1;entryX=0.5;entryY=0;entryDx=0;entryDy=0;entryPerimeter=0;" parent="Gb1qQWzs4bRgOtGYMly9-77" source="Gb1qQWzs4bRgOtGYMly9-60" target="Gb1qQWzs4bRgOtGYMly9-22" edge="1">
          <mxGeometry relative="1" as="geometry" />
        </mxCell>
        <mxCell id="Gb1qQWzs4bRgOtGYMly9-70" value="&lt;font face=&quot;Times New Roman, serif&quot;&gt;&lt;span style=&quot;font-size: 11px;&quot;&gt;Клиент подверждает получение&lt;/span&gt;&lt;/font&gt;" style="shape=rect;rounded=1;html=1;whiteSpace=wrap;align=center;" parent="Gb1qQWzs4bRgOtGYMly9-77" vertex="1">
          <mxGeometry x="110" y="1296" width="100" height="40" as="geometry" />
        </mxCell>
        <mxCell id="Gb1qQWzs4bRgOtGYMly9-78" value="&lt;span style=&quot;font-size:12.0pt;line-height:107%;&lt;br/&gt;font-family:&amp;quot;Times New Roman&amp;quot;,serif;mso-fareast-font-family:Calibri;mso-fareast-theme-font:&lt;br/&gt;minor-latin;mso-ansi-language:RU;mso-fareast-language:EN-US;mso-bidi-language:&lt;br/&gt;AR-SA;mso-bidi-font-style:italic&quot;&gt;Система&lt;/span&gt;" style="swimlane;whiteSpace=wrap;html=1;" parent="Gb1qQWzs4bRgOtGYMly9-76" vertex="1">
          <mxGeometry x="320" y="24" width="460" height="1456" as="geometry" />
        </mxCell>
        <mxCell id="Gb1qQWzs4bRgOtGYMly9-25" value="&lt;span style=&quot;font-family: &amp;quot;Times New Roman&amp;quot;, serif; font-size: 11px; text-wrap-mode: nowrap; background-color: rgb(255, 255, 255);&quot;&gt;Система&lt;/span&gt;&lt;div&gt;&lt;span style=&quot;font-family: &amp;quot;Times New Roman&amp;quot;, serif; font-size: 11px; text-wrap-mode: nowrap; background-color: rgb(255, 255, 255);&quot;&gt;&amp;nbsp;проверяет&amp;nbsp;&lt;/span&gt;&lt;/div&gt;&lt;div&gt;&lt;span style=&quot;font-family: &amp;quot;Times New Roman&amp;quot;, serif; font-size: 11px; text-wrap-mode: nowrap; background-color: rgb(255, 255, 255);&quot;&gt;наличие&amp;nbsp;&lt;/span&gt;&lt;/div&gt;&lt;div&gt;&lt;span style=&quot;font-family: &amp;quot;Times New Roman&amp;quot;, serif; font-size: 11px; text-wrap-mode: nowrap; background-color: rgb(255, 255, 255);&quot;&gt;товаров&amp;nbsp;&lt;/span&gt;&lt;/div&gt;" style="rhombus;whiteSpace=wrap;html=1;align=center;" parent="Gb1qQWzs4bRgOtGYMly9-78" vertex="1">
          <mxGeometry x="160" y="186" width="97" height="100" as="geometry" />
        </mxCell>
        <mxCell id="Gb1qQWzs4bRgOtGYMly9-30" value="&lt;div style=&quot;&quot;&gt;&lt;span style=&quot;font-size: 11px; background-color: initial;&quot;&gt;Отправить уведомление клиенту&lt;/span&gt;&lt;/div&gt;" style="shape=rect;rounded=1;html=1;whiteSpace=wrap;align=center;" parent="Gb1qQWzs4bRgOtGYMly9-78" vertex="1">
          <mxGeometry x="7" y="286" width="100" height="50" as="geometry" />
        </mxCell>
        <mxCell id="Gb1qQWzs4bRgOtGYMly9-28" style="edgeStyle=orthogonalEdgeStyle;rounded=0;orthogonalLoop=1;jettySize=auto;html=1;entryX=0.5;entryY=0;entryDx=0;entryDy=0;" parent="Gb1qQWzs4bRgOtGYMly9-78" source="Gb1qQWzs4bRgOtGYMly9-25" target="Gb1qQWzs4bRgOtGYMly9-30" edge="1">
          <mxGeometry relative="1" as="geometry">
            <mxPoint x="-100" y="276" as="targetPoint" />
          </mxGeometry>
        </mxCell>
        <mxCell id="Gb1qQWzs4bRgOtGYMly9-33" value="&lt;span style=&quot;line-height: 107%; font-family: &amp;quot;Times New Roman&amp;quot;, serif;&quot;&gt;&lt;font&gt;товары не в наличии&lt;/font&gt;&lt;/span&gt;" style="edgeLabel;html=1;align=center;verticalAlign=middle;resizable=0;points=[];" parent="Gb1qQWzs4bRgOtGYMly9-28" vertex="1" connectable="0">
          <mxGeometry x="-0.1968" y="-2" relative="1" as="geometry">
            <mxPoint as="offset" />
          </mxGeometry>
        </mxCell>
        <mxCell id="Gb1qQWzs4bRgOtGYMly9-29" value="&lt;span style=&quot;line-height: 107%; font-family: &amp;quot;Times New Roman&amp;quot;, serif;&quot;&gt;&lt;font&gt;&amp;nbsp;заказ&lt;br/&gt;подтверждается&lt;/font&gt;&lt;/span&gt;" style="shape=rect;rounded=1;html=1;whiteSpace=wrap;align=center;" parent="Gb1qQWzs4bRgOtGYMly9-78" vertex="1">
          <mxGeometry x="300" y="326" width="100" height="40" as="geometry" />
        </mxCell>
        <mxCell id="Gb1qQWzs4bRgOtGYMly9-31" style="edgeStyle=orthogonalEdgeStyle;rounded=0;orthogonalLoop=1;jettySize=auto;html=1;entryX=0.574;entryY=-0.015;entryDx=0;entryDy=0;entryPerimeter=0;" parent="Gb1qQWzs4bRgOtGYMly9-78" source="Gb1qQWzs4bRgOtGYMly9-25" target="Gb1qQWzs4bRgOtGYMly9-29" edge="1">
          <mxGeometry relative="1" as="geometry" />
        </mxCell>
        <mxCell id="Gb1qQWzs4bRgOtGYMly9-37" value="товары в наличии" style="edgeLabel;html=1;align=center;verticalAlign=middle;resizable=0;points=[];" parent="Gb1qQWzs4bRgOtGYMly9-31" vertex="1" connectable="0">
          <mxGeometry x="-0.2844" y="2" relative="1" as="geometry">
            <mxPoint as="offset" />
          </mxGeometry>
        </mxCell>
        <mxCell id="Gb1qQWzs4bRgOtGYMly9-99" style="edgeStyle=orthogonalEdgeStyle;rounded=0;orthogonalLoop=1;jettySize=auto;html=1;" parent="Gb1qQWzs4bRgOtGYMly9-78" source="Gb1qQWzs4bRgOtGYMly9-73" edge="1">
          <mxGeometry relative="1" as="geometry">
            <mxPoint x="190.00000000000045" y="1376.0000000000005" as="targetPoint" />
          </mxGeometry>
        </mxCell>
        <mxCell id="Gb1qQWzs4bRgOtGYMly9-73" value="&lt;span style=&quot;line-height: 107%; font-family: &amp;quot;Times New Roman&amp;quot;, serif;&quot;&gt;&lt;font&gt;завершает заказ и отправляет электронный чек&lt;/font&gt;&lt;/span&gt;" style="shape=rect;rounded=1;html=1;whiteSpace=wrap;align=center;" parent="Gb1qQWzs4bRgOtGYMly9-78" vertex="1">
          <mxGeometry x="140" y="1296" width="100" height="40" as="geometry" />
        </mxCell>
        <mxCell id="Gb1qQWzs4bRgOtGYMly9-100" value="" style="shape=mxgraph.sysml.actFinal;html=1;verticalLabelPosition=bottom;labelBackgroundColor=#ffffff;verticalAlign=top;" parent="Gb1qQWzs4bRgOtGYMly9-78" vertex="1">
          <mxGeometry x="170" y="1376" width="40" height="40" as="geometry" />
        </mxCell>
        <mxCell id="Gb1qQWzs4bRgOtGYMly9-79" value="&lt;span style=&quot;font-size: 16px;&quot;&gt;Платежный шлюз&lt;/span&gt;" style="swimlane;whiteSpace=wrap;html=1;startSize=23;" parent="Gb1qQWzs4bRgOtGYMly9-76" vertex="1">
          <mxGeometry x="780" y="24" width="350" height="1456" as="geometry" />
        </mxCell>
        <mxCell id="Gb1qQWzs4bRgOtGYMly9-52" value="Проверка оплаты" style="rhombus;whiteSpace=wrap;html=1;" parent="Gb1qQWzs4bRgOtGYMly9-79" vertex="1">
          <mxGeometry x="140" y="576" width="80" height="80" as="geometry" />
        </mxCell>
        <mxCell id="Gb1qQWzs4bRgOtGYMly9-80" value="&lt;span style=&quot;font-size:12.0pt;line-height:107%;&amp;lt;br/&amp;gt;font-family:&amp;quot;Times New Roman&amp;quot;,serif;mso-fareast-font-family:Calibri;mso-fareast-theme-font:&amp;lt;br/&amp;gt;minor-latin;mso-ansi-language:RU;mso-fareast-language:EN-US;mso-bidi-language:&amp;lt;br/&amp;gt;AR-SA;mso-bidi-font-style:italic&quot;&gt;Склад&lt;/span&gt;" style="swimlane;whiteSpace=wrap;html=1;startSize=23;" parent="Gb1qQWzs4bRgOtGYMly9-76" vertex="1">
          <mxGeometry x="1130" y="24" width="470" height="1456" as="geometry" />
        </mxCell>
        <mxCell id="Gb1qQWzs4bRgOtGYMly9-55" value="&lt;span style=&quot;line-height: 107%; font-family: &amp;quot;Times New Roman&amp;quot;, serif;&quot; lang=&quot;EN-US&quot;&gt;&lt;font&gt;Склад начинает сборку&lt;br/&gt;заказа&lt;/font&gt;&lt;/span&gt;" style="shape=rect;rounded=1;html=1;whiteSpace=wrap;align=center;" parent="Gb1qQWzs4bRgOtGYMly9-80" vertex="1">
          <mxGeometry x="34" y="656" width="100" height="40" as="geometry" />
        </mxCell>
        <mxCell id="Gb1qQWzs4bRgOtGYMly9-58" value="Выбор доставки" style="rhombus;whiteSpace=wrap;html=1;" parent="Gb1qQWzs4bRgOtGYMly9-80" vertex="1">
          <mxGeometry x="240" y="766" width="80" height="80" as="geometry" />
        </mxCell>
        <mxCell id="Gb1qQWzs4bRgOtGYMly9-63" style="edgeStyle=orthogonalEdgeStyle;rounded=0;orthogonalLoop=1;jettySize=auto;html=1;entryX=0.5;entryY=0;entryDx=0;entryDy=0;" parent="Gb1qQWzs4bRgOtGYMly9-80" source="Gb1qQWzs4bRgOtGYMly9-55" target="Gb1qQWzs4bRgOtGYMly9-58" edge="1">
          <mxGeometry relative="1" as="geometry" />
        </mxCell>
        <mxCell id="Gb1qQWzs4bRgOtGYMly9-86" style="edgeStyle=orthogonalEdgeStyle;rounded=0;orthogonalLoop=1;jettySize=auto;html=1;exitX=1;exitY=0.5;exitDx=0;exitDy=0;entryX=0.5;entryY=0;entryDx=0;entryDy=0;" parent="Gb1qQWzs4bRgOtGYMly9-76" source="Gb1qQWzs4bRgOtGYMly9-6" target="Gb1qQWzs4bRgOtGYMly9-25" edge="1">
          <mxGeometry relative="1" as="geometry" />
        </mxCell>
        <mxCell id="Gb1qQWzs4bRgOtGYMly9-83" style="edgeStyle=orthogonalEdgeStyle;rounded=0;orthogonalLoop=1;jettySize=auto;html=1;exitX=0;exitY=0.5;exitDx=0;exitDy=0;entryX=0;entryY=0.5;entryDx=0;entryDy=0;" parent="Gb1qQWzs4bRgOtGYMly9-76" source="Gb1qQWzs4bRgOtGYMly9-30" target="Gb1qQWzs4bRgOtGYMly9-6" edge="1">
          <mxGeometry relative="1" as="geometry" />
        </mxCell>
        <mxCell id="Gb1qQWzs4bRgOtGYMly9-41" style="edgeStyle=orthogonalEdgeStyle;rounded=0;orthogonalLoop=1;jettySize=auto;html=1;entryX=-0.28;entryY=0.497;entryDx=0;entryDy=0;entryPerimeter=0;" parent="Gb1qQWzs4bRgOtGYMly9-76" source="Gb1qQWzs4bRgOtGYMly9-29" target="Gb1qQWzs4bRgOtGYMly9-46" edge="1">
          <mxGeometry relative="1" as="geometry">
            <mxPoint x="550" y="460" as="targetPoint" />
            <Array as="points">
              <mxPoint x="550" y="428" />
              <mxPoint x="550" y="428" />
            </Array>
          </mxGeometry>
        </mxCell>
        <mxCell id="Gb1qQWzs4bRgOtGYMly9-49" value="&lt;span style=&quot;line-height: 107%; font-family: &amp;quot;Times New Roman&amp;quot;, serif;&quot;&gt;&lt;font&gt;Клиент выбирает способ оплаты&amp;nbsp;&lt;/font&gt;&lt;/span&gt;" style="edgeLabel;html=1;align=center;verticalAlign=middle;resizable=0;points=[];" parent="Gb1qQWzs4bRgOtGYMly9-41" vertex="1" connectable="0">
          <mxGeometry x="-0.385" relative="1" as="geometry">
            <mxPoint as="offset" />
          </mxGeometry>
        </mxCell>
        <mxCell id="Gb1qQWzs4bRgOtGYMly9-51" value="" style="edgeStyle=orthogonalEdgeStyle;rounded=0;orthogonalLoop=1;jettySize=auto;html=1;entryX=0.5;entryY=0;entryDx=0;entryDy=0;" parent="Gb1qQWzs4bRgOtGYMly9-76" source="Gb1qQWzs4bRgOtGYMly9-38" target="Gb1qQWzs4bRgOtGYMly9-52" edge="1">
          <mxGeometry relative="1" as="geometry">
            <mxPoint x="387" y="620" as="targetPoint" />
            <Array as="points">
              <mxPoint x="960" y="560" />
            </Array>
          </mxGeometry>
        </mxCell>
        <mxCell id="Gb1qQWzs4bRgOtGYMly9-64" value="Проверка оплаты" style="edgeLabel;html=1;align=center;verticalAlign=middle;resizable=0;points=[];" parent="Gb1qQWzs4bRgOtGYMly9-51" vertex="1" connectable="0">
          <mxGeometry x="-0.3058" y="1" relative="1" as="geometry">
            <mxPoint as="offset" />
          </mxGeometry>
        </mxCell>
        <mxCell id="Gb1qQWzs4bRgOtGYMly9-57" style="edgeStyle=orthogonalEdgeStyle;rounded=0;orthogonalLoop=1;jettySize=auto;html=1;entryX=0.5;entryY=0;entryDx=0;entryDy=0;" parent="Gb1qQWzs4bRgOtGYMly9-76" source="Gb1qQWzs4bRgOtGYMly9-52" target="Gb1qQWzs4bRgOtGYMly9-55" edge="1">
          <mxGeometry relative="1" as="geometry" />
        </mxCell>
        <mxCell id="Gb1qQWzs4bRgOtGYMly9-65" value="Олата прошла" style="edgeLabel;html=1;align=center;verticalAlign=middle;resizable=0;points=[];" parent="Gb1qQWzs4bRgOtGYMly9-57" vertex="1" connectable="0">
          <mxGeometry x="-0.2534" relative="1" as="geometry">
            <mxPoint as="offset" />
          </mxGeometry>
        </mxCell>
        <mxCell id="Gb1qQWzs4bRgOtGYMly9-81" value="&lt;span style=&quot;font-size:12.0pt;line-height:107%;&lt;br/&gt;font-family:&amp;quot;Times New Roman&amp;quot;,serif;mso-fareast-font-family:Calibri;mso-fareast-theme-font:&lt;br/&gt;minor-latin;mso-ansi-language:RU;mso-fareast-language:EN-US;mso-bidi-language:&lt;br/&gt;AR-SA;mso-bidi-font-style:italic&quot;&gt;Курьерская служба&lt;/span&gt;" style="swimlane;whiteSpace=wrap;html=1;" parent="Gb1qQWzs4bRgOtGYMly9-76" vertex="1">
          <mxGeometry x="1600" y="30" width="423" height="1456" as="geometry" />
        </mxCell>
        <mxCell id="Gb1qQWzs4bRgOtGYMly9-95" style="edgeStyle=orthogonalEdgeStyle;rounded=0;orthogonalLoop=1;jettySize=auto;html=1;" parent="Gb1qQWzs4bRgOtGYMly9-81" source="Gb1qQWzs4bRgOtGYMly9-59" target="Gb1qQWzs4bRgOtGYMly9-71" edge="1">
          <mxGeometry relative="1" as="geometry" />
        </mxCell>
        <mxCell id="Gb1qQWzs4bRgOtGYMly9-59" value="&lt;span style=&quot;line-height: 107%; font-family: &amp;quot;Times New Roman&amp;quot;, serif;&quot;&gt;&lt;font style=&quot;font-size: 11px;&quot;&gt;отправить заявку в службу доставки&lt;/font&gt;&lt;/span&gt;" style="shape=rect;rounded=1;html=1;whiteSpace=wrap;align=center;" parent="Gb1qQWzs4bRgOtGYMly9-81" vertex="1">
          <mxGeometry x="70" y="856" width="100" height="40" as="geometry" />
        </mxCell>
        <mxCell id="Gb1qQWzs4bRgOtGYMly9-71" value="&lt;span style=&quot;line-height: 107%; font-family: &amp;quot;Times New Roman&amp;quot;, serif;&quot; lang=&quot;EN-US&quot;&gt;&lt;font&gt;Курьер доставляет&lt;br/&gt;товар клиенту&lt;/font&gt;&lt;/span&gt;" style="shape=rect;rounded=1;html=1;whiteSpace=wrap;align=center;" parent="Gb1qQWzs4bRgOtGYMly9-81" vertex="1">
          <mxGeometry x="70" y="950" width="100" height="40" as="geometry" />
        </mxCell>
        <mxCell id="Gb1qQWzs4bRgOtGYMly9-56" style="edgeStyle=orthogonalEdgeStyle;rounded=0;orthogonalLoop=1;jettySize=auto;html=1;entryX=0.5;entryY=0;entryDx=0;entryDy=0;" parent="Gb1qQWzs4bRgOtGYMly9-76" source="Gb1qQWzs4bRgOtGYMly9-52" target="Gb1qQWzs4bRgOtGYMly9-54" edge="1">
          <mxGeometry relative="1" as="geometry" />
        </mxCell>
        <mxCell id="Gb1qQWzs4bRgOtGYMly9-66" value="Оплата не прошла" style="edgeLabel;html=1;align=center;verticalAlign=middle;resizable=0;points=[];" parent="Gb1qQWzs4bRgOtGYMly9-56" vertex="1" connectable="0">
          <mxGeometry x="-0.3246" y="-1" relative="1" as="geometry">
            <mxPoint as="offset" />
          </mxGeometry>
        </mxCell>
        <mxCell id="Gb1qQWzs4bRgOtGYMly9-62" style="edgeStyle=orthogonalEdgeStyle;rounded=0;orthogonalLoop=1;jettySize=auto;html=1;entryX=0.5;entryY=0;entryDx=0;entryDy=0;" parent="Gb1qQWzs4bRgOtGYMly9-76" source="Gb1qQWzs4bRgOtGYMly9-58" target="Gb1qQWzs4bRgOtGYMly9-60" edge="1">
          <mxGeometry relative="1" as="geometry" />
        </mxCell>
        <mxCell id="Gb1qQWzs4bRgOtGYMly9-68" value="Если самовызов" style="edgeLabel;html=1;align=center;verticalAlign=middle;resizable=0;points=[];" parent="Gb1qQWzs4bRgOtGYMly9-62" vertex="1" connectable="0">
          <mxGeometry x="-0.1505" y="2" relative="1" as="geometry">
            <mxPoint as="offset" />
          </mxGeometry>
        </mxCell>
        <mxCell id="Gb1qQWzs4bRgOtGYMly9-61" style="edgeStyle=orthogonalEdgeStyle;rounded=0;orthogonalLoop=1;jettySize=auto;html=1;" parent="Gb1qQWzs4bRgOtGYMly9-76" source="Gb1qQWzs4bRgOtGYMly9-58" target="Gb1qQWzs4bRgOtGYMly9-59" edge="1">
          <mxGeometry relative="1" as="geometry" />
        </mxCell>
        <mxCell id="Gb1qQWzs4bRgOtGYMly9-69" value="Если курерская служба" style="edgeLabel;html=1;align=center;verticalAlign=middle;resizable=0;points=[];" parent="Gb1qQWzs4bRgOtGYMly9-61" vertex="1" connectable="0">
          <mxGeometry x="-0.3935" y="-2" relative="1" as="geometry">
            <mxPoint as="offset" />
          </mxGeometry>
        </mxCell>
        <mxCell id="Gb1qQWzs4bRgOtGYMly9-96" style="edgeStyle=orthogonalEdgeStyle;rounded=0;orthogonalLoop=1;jettySize=auto;html=1;entryX=0.5;entryY=0;entryDx=0;entryDy=0;" parent="Gb1qQWzs4bRgOtGYMly9-76" source="Gb1qQWzs4bRgOtGYMly9-71" target="Gb1qQWzs4bRgOtGYMly9-70" edge="1">
          <mxGeometry relative="1" as="geometry">
            <Array as="points">
              <mxPoint x="1720" y="1260" />
              <mxPoint x="160" y="1260" />
            </Array>
          </mxGeometry>
        </mxCell>
        <mxCell id="Gb1qQWzs4bRgOtGYMly9-97" style="edgeStyle=orthogonalEdgeStyle;rounded=0;orthogonalLoop=1;jettySize=auto;html=1;entryX=0;entryY=0.5;entryDx=0;entryDy=0;" parent="Gb1qQWzs4bRgOtGYMly9-76" source="Gb1qQWzs4bRgOtGYMly9-70" target="Gb1qQWzs4bRgOtGYMly9-73" edge="1">
          <mxGeometry relative="1" as="geometry" />
        </mxCell>
        <mxCell id="Gb1qQWzs4bRgOtGYMly9-98" style="edgeStyle=orthogonalEdgeStyle;rounded=0;orthogonalLoop=1;jettySize=auto;html=1;entryX=0.5;entryY=0;entryDx=0;entryDy=0;" parent="Gb1qQWzs4bRgOtGYMly9-76" source="Gb1qQWzs4bRgOtGYMly9-39" target="Gb1qQWzs4bRgOtGYMly9-73" edge="1">
          <mxGeometry relative="1" as="geometry" />
        </mxCell>
      </root>
    </mxGraphModel>
  </diagram>
  <diagram id="rIrQNTDBCCK9GAsBfOvl" name="Задание 2">
    <mxGraphModel dx="1877" dy="565" grid="1" gridSize="10" guides="1" tooltips="1" connect="1" arrows="1" fold="1" page="1" pageScale="1" pageWidth="827" pageHeight="1169" math="0" shadow="0">
      <root>
        <mxCell id="0" />
        <mxCell id="1" parent="0" />
        <mxCell id="rDsjldTk08jYsZE3p7kD-1" value="" style="shape=umlLifeline;perimeter=lifelinePerimeter;whiteSpace=wrap;html=1;container=1;dropTarget=0;collapsible=0;recursiveResize=0;outlineConnect=0;portConstraint=eastwest;newEdgeStyle={&quot;curved&quot;:0,&quot;rounded&quot;:0};participant=umlActor;" parent="1" vertex="1">
          <mxGeometry x="60" y="50" width="20" height="1700" as="geometry" />
        </mxCell>
        <mxCell id="rDsjldTk08jYsZE3p7kD-2" value="" style="html=1;points=[[0,0,0,0,5],[0,1,0,0,-5],[1,0,0,0,5],[1,1,0,0,-5]];perimeter=orthogonalPerimeter;outlineConnect=0;targetShapes=umlLifeline;portConstraint=eastwest;newEdgeStyle={&quot;curved&quot;:0,&quot;rounded&quot;:0};" parent="rDsjldTk08jYsZE3p7kD-1" vertex="1">
          <mxGeometry x="5" y="120" width="10" height="200" as="geometry" />
        </mxCell>
        <mxCell id="rDsjldTk08jYsZE3p7kD-3" value="" style="html=1;points=[[0,0,0,0,5],[0,1,0,0,-5],[1,0,0,0,5],[1,1,0,0,-5]];perimeter=orthogonalPerimeter;outlineConnect=0;targetShapes=umlLifeline;portConstraint=eastwest;newEdgeStyle={&quot;curved&quot;:0,&quot;rounded&quot;:0};" parent="rDsjldTk08jYsZE3p7kD-1" vertex="1">
          <mxGeometry x="5" y="1110" width="10" height="60" as="geometry" />
        </mxCell>
        <mxCell id="rDsjldTk08jYsZE3p7kD-4" value="Cистема" style="shape=umlLifeline;perimeter=lifelinePerimeter;whiteSpace=wrap;html=1;container=1;dropTarget=0;collapsible=0;recursiveResize=0;outlineConnect=0;portConstraint=eastwest;newEdgeStyle={&quot;curved&quot;:0,&quot;rounded&quot;:0};" parent="1" vertex="1">
          <mxGeometry x="180" y="50" width="100" height="1700" as="geometry" />
        </mxCell>
        <mxCell id="rDsjldTk08jYsZE3p7kD-5" value="" style="html=1;points=[[0,0,0,0,5],[0,1,0,0,-5],[1,0,0,0,5],[1,1,0,0,-5]];perimeter=orthogonalPerimeter;outlineConnect=0;targetShapes=umlLifeline;portConstraint=eastwest;newEdgeStyle={&quot;curved&quot;:0,&quot;rounded&quot;:0};" parent="rDsjldTk08jYsZE3p7kD-4" vertex="1">
          <mxGeometry x="45" y="540" width="10" height="40" as="geometry" />
        </mxCell>
        <mxCell id="rDsjldTk08jYsZE3p7kD-6" value="валидация" style="html=1;align=left;spacingLeft=2;endArrow=block;rounded=0;edgeStyle=orthogonalEdgeStyle;curved=0;rounded=0;" parent="rDsjldTk08jYsZE3p7kD-4" target="rDsjldTk08jYsZE3p7kD-5" edge="1">
          <mxGeometry relative="1" as="geometry">
            <mxPoint x="50" y="520" as="sourcePoint" />
            <Array as="points">
              <mxPoint x="80" y="550" />
            </Array>
          </mxGeometry>
        </mxCell>
        <mxCell id="rDsjldTk08jYsZE3p7kD-7" value="База данных" style="shape=umlLifeline;perimeter=lifelinePerimeter;whiteSpace=wrap;html=1;container=1;dropTarget=0;collapsible=0;recursiveResize=0;outlineConnect=0;portConstraint=eastwest;newEdgeStyle={&quot;curved&quot;:0,&quot;rounded&quot;:0};" parent="1" vertex="1">
          <mxGeometry x="400" y="50" width="100" height="1700" as="geometry" />
        </mxCell>
        <mxCell id="rDsjldTk08jYsZE3p7kD-8" value="" style="html=1;points=[[0,0,0,0,5],[0,1,0,0,-5],[1,0,0,0,5],[1,1,0,0,-5]];perimeter=orthogonalPerimeter;outlineConnect=0;targetShapes=umlLifeline;portConstraint=eastwest;newEdgeStyle={&quot;curved&quot;:0,&quot;rounded&quot;:0};" parent="rDsjldTk08jYsZE3p7kD-7" vertex="1">
          <mxGeometry x="45" y="150" width="10" height="60" as="geometry" />
        </mxCell>
        <mxCell id="rDsjldTk08jYsZE3p7kD-9" value="Платежный шлюз" style="shape=umlLifeline;perimeter=lifelinePerimeter;whiteSpace=wrap;html=1;container=1;dropTarget=0;collapsible=0;recursiveResize=0;outlineConnect=0;portConstraint=eastwest;newEdgeStyle={&quot;curved&quot;:0,&quot;rounded&quot;:0};" parent="1" vertex="1">
          <mxGeometry x="650" y="50" width="100" height="1700" as="geometry" />
        </mxCell>
        <mxCell id="rDsjldTk08jYsZE3p7kD-10" value="" style="html=1;points=[[0,0,0,0,5],[0,1,0,0,-5],[1,0,0,0,5],[1,1,0,0,-5]];perimeter=orthogonalPerimeter;outlineConnect=0;targetShapes=umlLifeline;portConstraint=eastwest;newEdgeStyle={&quot;curved&quot;:0,&quot;rounded&quot;:0};" parent="rDsjldTk08jYsZE3p7kD-9" vertex="1">
          <mxGeometry x="46" y="640" width="10" height="40" as="geometry" />
        </mxCell>
        <mxCell id="rDsjldTk08jYsZE3p7kD-11" value="валидация" style="html=1;align=left;spacingLeft=2;endArrow=block;rounded=0;edgeStyle=orthogonalEdgeStyle;curved=0;rounded=0;" parent="rDsjldTk08jYsZE3p7kD-9" target="rDsjldTk08jYsZE3p7kD-10" edge="1">
          <mxGeometry relative="1" as="geometry">
            <mxPoint x="51" y="620" as="sourcePoint" />
            <Array as="points">
              <mxPoint x="81" y="650" />
            </Array>
          </mxGeometry>
        </mxCell>
        <mxCell id="rDsjldTk08jYsZE3p7kD-12" value="" style="html=1;points=[[0,0,0,0,5],[0,1,0,0,-5],[1,0,0,0,5],[1,1,0,0,-5]];perimeter=orthogonalPerimeter;outlineConnect=0;targetShapes=umlLifeline;portConstraint=eastwest;newEdgeStyle={&quot;curved&quot;:0,&quot;rounded&quot;:0};" parent="rDsjldTk08jYsZE3p7kD-9" vertex="1">
          <mxGeometry x="46" y="740" width="10" height="40" as="geometry" />
        </mxCell>
        <mxCell id="rDsjldTk08jYsZE3p7kD-13" value="списание&amp;nbsp;&lt;div&gt;денег&lt;/div&gt;" style="html=1;align=left;spacingLeft=2;endArrow=block;rounded=0;edgeStyle=orthogonalEdgeStyle;curved=0;rounded=0;" parent="rDsjldTk08jYsZE3p7kD-9" target="rDsjldTk08jYsZE3p7kD-12" edge="1">
          <mxGeometry relative="1" as="geometry">
            <mxPoint x="51" y="720" as="sourcePoint" />
            <Array as="points">
              <mxPoint x="81" y="750" />
            </Array>
          </mxGeometry>
        </mxCell>
        <mxCell id="rDsjldTk08jYsZE3p7kD-14" value="Выбор курса" style="html=1;verticalAlign=bottom;endArrow=block;curved=0;rounded=0;" parent="1" edge="1">
          <mxGeometry width="80" relative="1" as="geometry">
            <mxPoint x="70" y="180" as="sourcePoint" />
            <mxPoint x="229.5" y="180" as="targetPoint" />
          </mxGeometry>
        </mxCell>
        <mxCell id="rDsjldTk08jYsZE3p7kD-15" value="Проверка доступность курса" style="html=1;verticalAlign=bottom;endArrow=block;curved=0;rounded=0;" parent="1" edge="1">
          <mxGeometry width="80" relative="1" as="geometry">
            <mxPoint x="230" y="210" as="sourcePoint" />
            <mxPoint x="449.5" y="210" as="targetPoint" />
          </mxGeometry>
        </mxCell>
        <mxCell id="rDsjldTk08jYsZE3p7kD-16" value="Курс доступен" style="html=1;verticalAlign=bottom;endArrow=open;dashed=1;endSize=8;curved=0;rounded=0;" parent="1" edge="1">
          <mxGeometry relative="1" as="geometry">
            <mxPoint x="450" y="249.62" as="sourcePoint" />
            <mxPoint x="230" y="250" as="targetPoint" />
          </mxGeometry>
        </mxCell>
        <mxCell id="rDsjldTk08jYsZE3p7kD-17" value="Курс доступен" style="html=1;verticalAlign=bottom;endArrow=open;dashed=1;endSize=8;curved=0;rounded=0;" parent="1" edge="1">
          <mxGeometry relative="1" as="geometry">
            <mxPoint x="230" y="260" as="sourcePoint" />
            <mxPoint x="69.70000000000005" y="260" as="targetPoint" />
          </mxGeometry>
        </mxCell>
        <mxCell id="rDsjldTk08jYsZE3p7kD-18" value="alt" style="shape=umlFrame;whiteSpace=wrap;html=1;pointerEvents=0;" parent="1" vertex="1">
          <mxGeometry x="40" y="120" width="440" height="260" as="geometry" />
        </mxCell>
        <mxCell id="rDsjldTk08jYsZE3p7kD-19" value="" style="line;strokeWidth=1;fillColor=none;align=left;verticalAlign=middle;spacingTop=-1;spacingLeft=3;spacingRight=3;rotatable=0;labelPosition=right;points=[];portConstraint=eastwest;strokeColor=inherit;dashed=1;dashPattern=8 8;" parent="1" vertex="1">
          <mxGeometry x="40" y="279" width="440" height="8" as="geometry" />
        </mxCell>
        <mxCell id="rDsjldTk08jYsZE3p7kD-20" value="Курс не доступен" style="html=1;verticalAlign=bottom;endArrow=open;dashed=1;endSize=8;curved=0;rounded=0;" parent="1" target="rDsjldTk08jYsZE3p7kD-4" edge="1">
          <mxGeometry relative="1" as="geometry">
            <mxPoint x="450" y="330" as="sourcePoint" />
            <mxPoint x="370" y="330" as="targetPoint" />
          </mxGeometry>
        </mxCell>
        <mxCell id="rDsjldTk08jYsZE3p7kD-21" value="Курс не доступен" style="html=1;verticalAlign=bottom;endArrow=open;dashed=1;endSize=8;curved=0;rounded=0;" parent="1" target="rDsjldTk08jYsZE3p7kD-1" edge="1">
          <mxGeometry relative="1" as="geometry">
            <mxPoint x="230" y="360" as="sourcePoint" />
            <mxPoint x="150" y="360" as="targetPoint" />
          </mxGeometry>
        </mxCell>
        <mxCell id="rDsjldTk08jYsZE3p7kD-22" value="" style="html=1;points=[[0,0,0,0,5],[0,1,0,0,-5],[1,0,0,0,5],[1,1,0,0,-5]];perimeter=orthogonalPerimeter;outlineConnect=0;targetShapes=umlLifeline;portConstraint=eastwest;newEdgeStyle={&quot;curved&quot;:0,&quot;rounded&quot;:0};" parent="1" vertex="1">
          <mxGeometry x="445" y="290" width="10" height="50" as="geometry" />
        </mxCell>
        <mxCell id="rDsjldTk08jYsZE3p7kD-23" value="alt" style="shape=umlFrame;whiteSpace=wrap;html=1;pointerEvents=0;" parent="1" vertex="1">
          <mxGeometry y="450" width="810" height="1240" as="geometry" />
        </mxCell>
        <mxCell id="rDsjldTk08jYsZE3p7kD-24" value="онлайн" style="html=1;verticalAlign=bottom;endArrow=block;curved=0;rounded=0;" parent="1" target="rDsjldTk08jYsZE3p7kD-4" edge="1">
          <mxGeometry width="80" relative="1" as="geometry">
            <mxPoint x="70" y="480" as="sourcePoint" />
            <mxPoint x="150" y="480" as="targetPoint" />
          </mxGeometry>
        </mxCell>
        <mxCell id="rDsjldTk08jYsZE3p7kD-25" value="Способы оплаты&lt;div&gt;online&lt;/div&gt;" style="text;align=center;fontStyle=1;verticalAlign=middle;spacingLeft=3;spacingRight=3;strokeColor=none;rotatable=0;points=[[0,0.5],[1,0.5]];portConstraint=eastwest;html=1;" parent="1" vertex="1">
          <mxGeometry x="-120" y="450" width="80" height="26" as="geometry" />
        </mxCell>
        <mxCell id="rDsjldTk08jYsZE3p7kD-26" value="форма для заполнения" style="html=1;verticalAlign=bottom;endArrow=open;dashed=1;endSize=8;curved=0;rounded=0;" parent="1" edge="1">
          <mxGeometry relative="1" as="geometry">
            <mxPoint x="229.8" y="519.6" as="sourcePoint" />
            <mxPoint x="70.00000000000004" y="519.6" as="targetPoint" />
          </mxGeometry>
        </mxCell>
        <mxCell id="rDsjldTk08jYsZE3p7kD-27" value="" style="endArrow=block;endFill=1;html=1;edgeStyle=orthogonalEdgeStyle;align=left;verticalAlign=top;rounded=0;" parent="1" edge="1">
          <mxGeometry x="-1" relative="1" as="geometry">
            <mxPoint x="70" y="560" as="sourcePoint" />
            <mxPoint x="230" y="560" as="targetPoint" />
          </mxGeometry>
        </mxCell>
        <mxCell id="rDsjldTk08jYsZE3p7kD-28" value="Форма с данными" style="edgeLabel;html=1;align=center;verticalAlign=middle;resizable=0;points=[];" parent="rDsjldTk08jYsZE3p7kD-27" vertex="1" connectable="0">
          <mxGeometry x="0.266" relative="1" as="geometry">
            <mxPoint x="-22" y="-10" as="offset" />
          </mxGeometry>
        </mxCell>
        <mxCell id="rDsjldTk08jYsZE3p7kD-29" value="Оплата" style="html=1;verticalAlign=bottom;endArrow=block;curved=0;rounded=0;" parent="1" edge="1">
          <mxGeometry width="80" relative="1" as="geometry">
            <mxPoint x="230" y="660" as="sourcePoint" />
            <mxPoint x="699.4999999999995" y="660" as="targetPoint" />
          </mxGeometry>
        </mxCell>
        <mxCell id="rDsjldTk08jYsZE3p7kD-30" value="Платеж прошел" style="html=1;verticalAlign=bottom;endArrow=open;dashed=1;endSize=8;curved=0;rounded=0;" parent="1" target="rDsjldTk08jYsZE3p7kD-4" edge="1">
          <mxGeometry relative="1" as="geometry">
            <mxPoint x="700" y="920" as="sourcePoint" />
            <mxPoint x="235.00352941176442" y="920" as="targetPoint" />
          </mxGeometry>
        </mxCell>
        <mxCell id="rDsjldTk08jYsZE3p7kD-31" value="Оплата прошла успещно" style="html=1;verticalAlign=bottom;endArrow=open;dashed=1;endSize=8;curved=0;rounded=0;" parent="1" edge="1">
          <mxGeometry relative="1" as="geometry">
            <mxPoint x="230" y="950" as="sourcePoint" />
            <mxPoint x="70" y="950" as="targetPoint" />
          </mxGeometry>
        </mxCell>
        <mxCell id="rDsjldTk08jYsZE3p7kD-32" value="frame" style="shape=umlFrame;whiteSpace=wrap;html=1;pointerEvents=0;" parent="1" vertex="1">
          <mxGeometry x="50" y="880" width="760" height="190" as="geometry" />
        </mxCell>
        <mxCell id="rDsjldTk08jYsZE3p7kD-33" value="loop=5" style="shape=umlFrame;whiteSpace=wrap;html=1;pointerEvents=0;" parent="1" vertex="1">
          <mxGeometry x="611" y="750" width="190" height="100" as="geometry" />
        </mxCell>
        <mxCell id="rDsjldTk08jYsZE3p7kD-34" value="Способы оплаты&lt;div&gt;наличными&lt;/div&gt;" style="text;align=center;fontStyle=1;verticalAlign=middle;spacingLeft=3;spacingRight=3;strokeColor=none;rotatable=0;points=[[0,0.5],[1,0.5]];portConstraint=eastwest;html=1;" parent="1" vertex="1">
          <mxGeometry x="-120" y="1130" width="80" height="26" as="geometry" />
        </mxCell>
        <mxCell id="rDsjldTk08jYsZE3p7kD-35" value="" style="line;strokeWidth=1;fillColor=none;align=left;verticalAlign=middle;spacingTop=-1;spacingLeft=3;spacingRight=3;rotatable=0;labelPosition=right;points=[];portConstraint=eastwest;strokeColor=inherit;dashed=1;dashPattern=12 12;" parent="1" vertex="1">
          <mxGeometry x="50" y="970" width="760" height="8" as="geometry" />
        </mxCell>
        <mxCell id="rDsjldTk08jYsZE3p7kD-36" value="Платеж не прошел" style="html=1;verticalAlign=bottom;endArrow=open;dashed=1;endSize=8;curved=0;rounded=0;" parent="1" edge="1">
          <mxGeometry relative="1" as="geometry">
            <mxPoint x="695.41" y="1010" as="sourcePoint" />
            <mxPoint x="225.00090909090923" y="1010" as="targetPoint" />
          </mxGeometry>
        </mxCell>
        <mxCell id="rDsjldTk08jYsZE3p7kD-37" value="Оплата не прошел" style="html=1;verticalAlign=bottom;endArrow=open;dashed=1;endSize=8;curved=0;rounded=0;" parent="1" edge="1">
          <mxGeometry relative="1" as="geometry">
            <mxPoint x="230" y="1040" as="sourcePoint" />
            <mxPoint x="70" y="1040" as="targetPoint" />
          </mxGeometry>
        </mxCell>
        <mxCell id="rDsjldTk08jYsZE3p7kD-38" value="" style="html=1;points=[[0,0,0,0,5],[0,1,0,0,-5],[1,0,0,0,5],[1,1,0,0,-5]];perimeter=orthogonalPerimeter;outlineConnect=0;targetShapes=umlLifeline;portConstraint=eastwest;newEdgeStyle={&quot;curved&quot;:0,&quot;rounded&quot;:0};" parent="1" vertex="1">
          <mxGeometry x="65" y="470" width="10" height="60" as="geometry" />
        </mxCell>
        <mxCell id="rDsjldTk08jYsZE3p7kD-39" value="" style="html=1;points=[[0,0,0,0,5],[0,1,0,0,-5],[1,0,0,0,5],[1,1,0,0,-5]];perimeter=orthogonalPerimeter;outlineConnect=0;targetShapes=umlLifeline;portConstraint=eastwest;newEdgeStyle={&quot;curved&quot;:0,&quot;rounded&quot;:0};" parent="1" vertex="1">
          <mxGeometry x="225" y="470" width="10" height="60" as="geometry" />
        </mxCell>
        <mxCell id="rDsjldTk08jYsZE3p7kD-40" value="" style="line;strokeWidth=1;fillColor=none;align=left;verticalAlign=middle;spacingTop=-1;spacingLeft=3;spacingRight=3;rotatable=0;labelPosition=right;points=[];portConstraint=eastwest;strokeColor=inherit;dashed=1;dashPattern=12 12;" parent="1" vertex="1">
          <mxGeometry y="1110" width="810" height="8" as="geometry" />
        </mxCell>
        <mxCell id="rDsjldTk08jYsZE3p7kD-41" value="Перевод" style="html=1;verticalAlign=bottom;endArrow=block;curved=0;rounded=0;" parent="1" target="rDsjldTk08jYsZE3p7kD-4" edge="1">
          <mxGeometry width="80" relative="1" as="geometry">
            <mxPoint x="70" y="1170" as="sourcePoint" />
            <mxPoint x="225" y="1169" as="targetPoint" />
          </mxGeometry>
        </mxCell>
        <mxCell id="rDsjldTk08jYsZE3p7kD-42" value="реквизиты для перевода" style="html=1;verticalAlign=bottom;endArrow=open;dashed=1;endSize=8;curved=0;rounded=0;" parent="1" target="rDsjldTk08jYsZE3p7kD-1" edge="1">
          <mxGeometry relative="1" as="geometry">
            <mxPoint x="230" y="1210" as="sourcePoint" />
            <mxPoint x="150" y="1210" as="targetPoint" />
          </mxGeometry>
        </mxCell>
        <mxCell id="rDsjldTk08jYsZE3p7kD-43" value="" style="html=1;points=[[0,0,0,0,5],[0,1,0,0,-5],[1,0,0,0,5],[1,1,0,0,-5]];perimeter=orthogonalPerimeter;outlineConnect=0;targetShapes=umlLifeline;portConstraint=eastwest;newEdgeStyle={&quot;curved&quot;:0,&quot;rounded&quot;:0};" parent="1" vertex="1">
          <mxGeometry x="225" y="1160" width="10" height="60" as="geometry" />
        </mxCell>
        <mxCell id="rDsjldTk08jYsZE3p7kD-44" value="Форма с данными" style="html=1;verticalAlign=bottom;endArrow=block;curved=0;rounded=0;" parent="1" edge="1">
          <mxGeometry width="80" relative="1" as="geometry">
            <mxPoint x="72" y="1240" as="sourcePoint" />
            <mxPoint x="231.5" y="1240" as="targetPoint" />
          </mxGeometry>
        </mxCell>
        <mxCell id="rDsjldTk08jYsZE3p7kD-45" value="Оплата" style="html=1;verticalAlign=bottom;endArrow=block;curved=0;rounded=0;" parent="1" target="rDsjldTk08jYsZE3p7kD-9" edge="1">
          <mxGeometry width="80" relative="1" as="geometry">
            <mxPoint x="230" y="1280" as="sourcePoint" />
            <mxPoint x="310" y="1280" as="targetPoint" />
          </mxGeometry>
        </mxCell>
        <mxCell id="rDsjldTk08jYsZE3p7kD-46" value="" style="html=1;points=[[0,0,0,0,5],[0,1,0,0,-5],[1,0,0,0,5],[1,1,0,0,-5]];perimeter=orthogonalPerimeter;outlineConnect=0;targetShapes=umlLifeline;portConstraint=eastwest;newEdgeStyle={&quot;curved&quot;:0,&quot;rounded&quot;:0};" parent="1" vertex="1">
          <mxGeometry x="696" y="1330" width="10" height="40" as="geometry" />
        </mxCell>
        <mxCell id="rDsjldTk08jYsZE3p7kD-47" value="Списание&lt;div&gt;деген&lt;/div&gt;" style="html=1;align=left;spacingLeft=2;endArrow=block;rounded=0;edgeStyle=orthogonalEdgeStyle;curved=0;rounded=0;" parent="1" target="rDsjldTk08jYsZE3p7kD-46" edge="1">
          <mxGeometry relative="1" as="geometry">
            <mxPoint x="701" y="1310" as="sourcePoint" />
            <Array as="points">
              <mxPoint x="731" y="1340" />
            </Array>
          </mxGeometry>
        </mxCell>
        <mxCell id="rDsjldTk08jYsZE3p7kD-48" value="loop=5" style="shape=umlFrame;whiteSpace=wrap;html=1;pointerEvents=0;" parent="1" vertex="1">
          <mxGeometry x="610" y="1290" width="180" height="100" as="geometry" />
        </mxCell>
        <mxCell id="rDsjldTk08jYsZE3p7kD-49" value="frame" style="shape=umlFrame;whiteSpace=wrap;html=1;pointerEvents=0;" parent="1" vertex="1">
          <mxGeometry x="50" y="1420" width="760" height="220" as="geometry" />
        </mxCell>
        <mxCell id="rDsjldTk08jYsZE3p7kD-50" value="Платеж прошел" style="html=1;verticalAlign=bottom;endArrow=open;dashed=1;endSize=8;curved=0;rounded=0;" parent="1" target="rDsjldTk08jYsZE3p7kD-4" edge="1">
          <mxGeometry relative="1" as="geometry">
            <mxPoint x="700" y="1470" as="sourcePoint" />
            <mxPoint x="620" y="1470" as="targetPoint" />
          </mxGeometry>
        </mxCell>
        <mxCell id="rDsjldTk08jYsZE3p7kD-51" value="Оплата прошла успещно" style="html=1;verticalAlign=bottom;endArrow=open;dashed=1;endSize=8;curved=0;rounded=0;" parent="1" target="rDsjldTk08jYsZE3p7kD-1" edge="1">
          <mxGeometry relative="1" as="geometry">
            <mxPoint x="230" y="1510" as="sourcePoint" />
            <mxPoint x="150" y="1510" as="targetPoint" />
          </mxGeometry>
        </mxCell>
        <mxCell id="rDsjldTk08jYsZE3p7kD-52" value="" style="line;strokeWidth=1;fillColor=none;align=left;verticalAlign=middle;spacingTop=-1;spacingLeft=3;spacingRight=3;rotatable=0;labelPosition=right;points=[];portConstraint=eastwest;strokeColor=inherit;dashed=1;dashPattern=12 12;" parent="1" vertex="1">
          <mxGeometry x="50" y="1540" width="760" height="8" as="geometry" />
        </mxCell>
        <mxCell id="rDsjldTk08jYsZE3p7kD-53" value="Платеж не прошел" style="html=1;verticalAlign=bottom;endArrow=open;dashed=1;endSize=8;curved=0;rounded=0;" parent="1" edge="1">
          <mxGeometry relative="1" as="geometry">
            <mxPoint x="700.41" y="1590" as="sourcePoint" />
            <mxPoint x="230.00090909090923" y="1590" as="targetPoint" />
          </mxGeometry>
        </mxCell>
        <mxCell id="rDsjldTk08jYsZE3p7kD-54" value="Оплата не прошел" style="html=1;verticalAlign=bottom;endArrow=open;dashed=1;endSize=8;curved=0;rounded=0;" parent="1" source="rDsjldTk08jYsZE3p7kD-4" edge="1">
          <mxGeometry relative="1" as="geometry">
            <mxPoint x="220" y="1620" as="sourcePoint" />
            <mxPoint x="70" y="1620" as="targetPoint" />
          </mxGeometry>
        </mxCell>
        <mxCell id="rDsjldTk08jYsZE3p7kD-55" value="" style="shape=umlDestroy;whiteSpace=wrap;html=1;strokeWidth=3;targetShapes=umlLifeline;" parent="1" vertex="1">
          <mxGeometry x="685" y="1739" width="30" height="30" as="geometry" />
        </mxCell>
        <mxCell id="rDsjldTk08jYsZE3p7kD-56" value="" style="shape=umlDestroy;whiteSpace=wrap;html=1;strokeWidth=3;targetShapes=umlLifeline;" parent="1" vertex="1">
          <mxGeometry x="435" y="1739" width="30" height="30" as="geometry" />
        </mxCell>
        <mxCell id="rDsjldTk08jYsZE3p7kD-57" value="" style="shape=umlDestroy;whiteSpace=wrap;html=1;strokeWidth=3;targetShapes=umlLifeline;" parent="1" vertex="1">
          <mxGeometry x="215" y="1739" width="30" height="30" as="geometry" />
        </mxCell>
        <mxCell id="rDsjldTk08jYsZE3p7kD-58" value="" style="shape=umlDestroy;whiteSpace=wrap;html=1;strokeWidth=3;targetShapes=umlLifeline;" parent="1" vertex="1">
          <mxGeometry x="55" y="1739" width="30" height="30" as="geometry" />
        </mxCell>
      </root>
    </mxGraphModel>
  </diagram>
</mxfile>
